<?xml version="1.0" encoding="UTF-8" standalone="no"?>
<svg
   xmlns:dc="http://purl.org/dc/elements/1.1/"
   xmlns:cc="http://creativecommons.org/ns#"
   xmlns:rdf="http://www.w3.org/1999/02/22-rdf-syntax-ns#"
   xmlns:svg="http://www.w3.org/2000/svg"
   xmlns="http://www.w3.org/2000/svg"
   xmlns:sodipodi="http://sodipodi.sourceforge.net/DTD/sodipodi-0.dtd"
   xmlns:inkscape="http://www.inkscape.org/namespaces/inkscape"
   width="170mm"
   height="60.211147mm"
   viewBox="0 0 170.00001 60.211147"
   version="1.1"
   id="svg8"
   inkscape:version="1.0.1 (3bc2e813f5, 2020-09-07)"
   sodipodi:docname="boxplot.svg">
  <defs
     id="defs2" />
  <sodipodi:namedview
     id="base"
     pagecolor="#ffffff"
     bordercolor="#666666"
     borderopacity="1.0"
     inkscape:pageopacity="0.0"
     inkscape:pageshadow="2"
     inkscape:zoom="1.4142136"
     inkscape:cx="340.6472"
     inkscape:cy="154.70627"
     inkscape:document-units="mm"
     inkscape:current-layer="layer1"
     inkscape:document-rotation="0"
     showgrid="false"
     inkscape:window-width="1920"
     inkscape:window-height="991"
     inkscape:window-x="-9"
     inkscape:window-y="-9"
     inkscape:window-maximized="1"
     fit-margin-top="0"
     fit-margin-left="0"
     fit-margin-right="0"
     fit-margin-bottom="0" />
  <metadata
     id="metadata5">
    <rdf:RDF>
      <cc:Work
         rdf:about="">
        <dc:format>image/svg+xml</dc:format>
        <dc:type
           rdf:resource="http://purl.org/dc/dcmitype/StillImage" />
        <dc:title></dc:title>
      </cc:Work>
    </rdf:RDF>
  </metadata>
  <g
     inkscape:label="Calque 1"
     inkscape:groupmode="layer"
     id="layer1"
     transform="translate(-28.535322,-29.205842)">
    <g
       id="g1111"
       transform="translate(3.1750001)">
      <path
         style="fill:#000000;stroke-width:0.106284"
         d="m 156.10613,70.436408 c -0.004,-12.243676 -0.023,-13.716674 -0.17341,-13.472245 -0.18258,0.296719 -0.61442,0.379674 -0.61442,0.11803 0,-0.279203 0.83787,-1.436372 1.04151,-1.438393 0.20503,-0.002 0.99599,1.13339 0.99599,1.429748 0,0.266808 -0.4016,0.190557 -0.5761,-0.109385 -0.13828,-0.237686 -0.1635,1.566309 -0.18836,13.472245 -0.0286,13.663593 -0.0301,13.746678 -0.25469,13.746678 -0.22474,0 -0.22601,-0.076 -0.23052,-13.746678 z m 0.34412,-14.407122 c 0,-0.05489 -0.051,-0.07204 -0.1132,-0.03812 -0.0623,0.03393 -0.1132,0.106583 -0.1132,0.16147 0,0.05489 0.051,0.07204 0.1132,0.03812 0.0623,-0.03393 0.1132,-0.106584 0.1132,-0.16147 z M 67.927286,67.043743 c -0.004,-9.235845 -0.02273,-10.324041 -0.173406,-10.079235 -0.186738,0.303467 -0.614425,0.379069 -0.614425,0.108611 0,-0.273236 0.82422,-1.430886 1.018757,-1.430886 0.194537,0 1.018756,1.15765 1.018756,1.430886 0,0.262891 -0.381146,0.193123 -0.593343,-0.108611 -0.182637,-0.259705 -0.193162,0.281285 -0.196009,10.079235 -0.0032,10.286254 -0.004,10.35367 -0.229404,10.35367 -0.224907,0 -0.22642,-0.06786 -0.230926,-10.35367 z m 0.29452,-10.97953 c -0.03794,-0.03345 -0.156911,0.02034 -0.264377,0.119538 -0.186803,0.17242 -0.183761,0.175096 0.06901,0.06082 0.145407,-0.06574 0.233336,-0.146907 0.195394,-0.180358 z m 43.816514,9.083436 c -0.0404,-0.48026 -0.1049,-0.974242 -0.14336,-1.097738 l -0.0699,-0.224537 -8.10853,-0.0015 c -4.459686,-7.98e-4 -8.169016,-0.03543 -8.242941,-0.07688 -0.239395,-0.134201 -0.382004,-0.63314 -0.452887,-1.584558 -0.06609,-0.886583 -0.05841,-0.931693 0.157769,-0.931693 0.202804,0 0.235536,0.08836 0.305036,0.823304 0.04279,0.452817 0.1066,0.924345 0.141743,1.04784 l 0.06391,0.224538 h 8.12967 c 7.23968,0 8.14914,0.01717 8.30755,0.15682 0.16171,0.142563 0.19405,0.142563 0.35575,0 0.15841,-0.139653 1.06778,-0.15682 8.30663,-0.15682 h 8.12874 l 0.069,-0.224538 c 0.0379,-0.123495 0.10236,-0.595023 0.14309,-1.04784 0.0661,-0.734919 0.0984,-0.823304 0.3004,-0.823304 0.21458,0 0.22301,0.04788 0.16254,0.923098 -0.0647,0.936417 -0.21414,1.456646 -0.45765,1.593151 -0.0739,0.04145 -3.78367,0.07604 -8.24387,0.07688 l -8.10947,0.0015 -0.067,0.235222 c -0.0368,0.129373 -0.10081,0.623355 -0.14217,1.097739 -0.0628,0.719835 -0.10709,0.862516 -0.26794,0.862516 -0.16125,0 -0.20474,-0.14269 -0.26616,-0.873201 z m 0.3791,-0.723509 c 0,-0.164661 -0.051,-0.299383 -0.11319,-0.299383 -0.12591,0 -0.15623,0.427767 -0.0377,0.532236 0.12789,0.112745 0.15093,0.0772 0.15093,-0.232853 z m -4.60438,-0.873151 c -2.18999,-0.01514 -5.80657,-0.01515 -8.036826,-1.7e-5 -2.23027,0.01514 -0.43846,0.02752 3.981796,0.02753 4.42026,9e-6 6.24502,-0.01237 4.05503,-0.02752 z m 17.09243,0 c -2.18999,-0.01514 -5.80657,-0.01515 -8.03683,-1.7e-5 -2.23027,0.01514 -0.43846,0.02752 3.9818,0.02753 4.42027,9e-6 6.24503,-0.01237 4.05503,-0.02752 z m -81.162377,2.14553 c -0.0504,-0.06861 -0.194594,-1.921042 -0.320496,-4.116519 -0.224599,-3.916405 -0.232665,-3.985652 -0.427388,-3.667445 -0.220052,0.359597 -0.53224,0.433874 -0.53224,0.126632 0,-0.338923 0.709295,-1.498805 0.916557,-1.498805 0.209819,0 1.120948,1.161536 1.120948,1.429028 0,0.244613 -0.393677,0.207484 -0.602824,-0.05686 -0.176351,-0.222873 -0.17771,-0.221962 -0.1836,0.122781 -0.0057,0.321015 0.303475,5.96119 0.36364,6.63829 0.02249,0.252788 0.440606,-0.281884 2.686685,-3.435367 1.463044,-2.054112 2.678708,-3.776184 2.701473,-3.826827 0.02273,-0.05064 -0.06302,-0.04281 -0.190646,0.0174 -0.341085,0.160931 -0.586782,0.133547 -0.584598,-0.06515 0.0016,-0.112875 0.280112,-0.306993 0.788503,-0.548869 0.432614,-0.205827 0.839251,-0.374229 0.90363,-0.374229 0.0724,0 0.117069,0.361656 0.117069,0.948047 0,0.871681 -0.01772,0.948046 -0.219559,0.948046 -0.171894,0 -0.22718,-0.08105 -0.254685,-0.373334 -0.03414,-0.362723 -0.07249,-0.320883 -1.347966,1.471967 -2.330052,3.275105 -2.481405,3.49191 -2.437687,3.49191 0.05808,0 5.618234,-5.571638 5.618234,-5.629842 0,-0.02524 -0.178285,-0.02039 -0.396177,0.01078 -0.337825,0.04833 -0.396185,0.02838 -0.396185,-0.135396 0,-0.15298 0.197659,-0.248827 0.971091,-0.470886 0.534101,-0.153346 1.002326,-0.251272 1.040511,-0.217612 0.07087,0.06244 -0.260947,1.739386 -0.361698,1.82821 -0.0305,0.02687 -0.139583,0.02038 -0.242462,-0.01443 -0.148611,-0.05028 -0.171173,-0.139957 -0.10982,-0.436455 0.06715,-0.324284 0.05623,-0.353563 -0.0829,-0.223483 -0.08807,0.08233 -1.449987,1.452008 -3.026475,3.043729 -1.57648,1.591721 -2.998064,3.026712 -3.159069,3.188868 L 45.80222,64.165527 46.198405,63.9112 c 0.2179,-0.139878 2.739317,-1.749536 5.603146,-3.577013 2.863829,-1.827478 5.232436,-3.344837 5.263566,-3.371905 0.03115,-0.02707 -0.135084,-0.01866 -0.369367,0.01868 -0.338351,0.05394 -0.440687,0.03406 -0.497567,-0.09663 -0.0394,-0.09049 -0.0087,-0.198779 0.06804,-0.240638 0.170566,-0.09294 1.937175,-0.230788 2.020152,-0.157634 0.03268,0.0288 -0.114148,0.411681 -0.326256,0.85084 -0.271941,0.563036 -0.444069,0.798722 -0.583748,0.79932 -0.227601,9.72e-4 -0.26496,-0.301299 -0.0758,-0.612967 0.07159,-0.117898 -0.292441,0.06576 -0.877257,0.44262 -6.194298,3.991593 -12.310172,7.855364 -12.434076,7.855364 -0.08505,0 -0.195847,-0.05613 -0.246215,-0.124743 z m 0.655012,-0.381024 c 0.180817,-0.113512 0.328756,-0.284161 0.328756,-0.379219 0,-0.09506 0.06116,-0.226724 0.135837,-0.292588 0.07475,-0.06587 0.08569,-0.119753 0.02443,-0.119753 -0.06132,0 -0.205854,0.140925 -0.321264,0.313167 -0.115402,0.172243 -0.304673,0.396781 -0.420584,0.498972 -0.279125,0.246083 -0.155965,0.236058 0.252848,-0.02058 z m 0.720103,-0.385487 c 0.03584,-0.0511 0.02184,-0.11648 -0.03107,-0.145302 -0.05291,-0.02882 -0.09617,0.01298 -0.09617,0.0929 0,0.168271 0.03568,0.182972 0.127229,0.0524 z m 0.804327,-1.229378 0.332461,-0.324331 -0.367886,0.293105 c -0.202336,0.161208 -0.367879,0.307157 -0.367879,0.324332 0,0.0771 0.0934,0.0092 0.403304,-0.293106 z m 0.792362,-0.798355 0.332461,-0.324331 -0.367878,0.293105 c -0.202336,0.161208 -0.367887,0.307157 -0.367887,0.324331 0,0.0771 0.0934,0.0092 0.403304,-0.293105 z m 0.792362,-0.798354 0.332469,-0.324333 -0.367886,0.293106 c -0.342922,0.273214 -0.419913,0.355558 -0.332462,0.355558 0.0195,0 0.185024,-0.145949 0.367879,-0.324331 z m 0.84184,-0.823305 c 0.146224,-0.137217 0.24039,-0.249486 0.20926,-0.249486 -0.03115,0 -0.176229,0.112269 -0.322454,0.249486 -0.146216,0.137218 -0.240382,0.249486 -0.209252,0.249486 0.03115,0 0.176229,-0.112268 0.322446,-0.249486 z m 0.856085,-0.8732 0.332462,-0.324333 -0.367879,0.293106 c -0.202336,0.161208 -0.367887,0.307157 -0.367887,0.324332 0,0.0771 0.09341,0.0092 0.403304,-0.293105 z m 0.792362,-0.798356 0.33247,-0.324332 -0.367887,0.293105 c -0.342921,0.273216 -0.419913,0.355559 -0.332461,0.355559 0.0195,0 0.185023,-0.145949 0.367878,-0.324332 z m 0.79237,-0.798355 0.332461,-0.324332 -0.367886,0.293105 c -0.342913,0.273216 -0.419913,0.355558 -0.332461,0.355558 0.0195,0 0.185031,-0.145949 0.367886,-0.324331 z m 0.84184,-0.823304 c 0.146216,-0.137217 0.240382,-0.249486 0.209252,-0.249486 -0.03115,0 -0.176229,0.112269 -0.322446,0.249486 -0.146224,0.137217 -0.24039,0.249486 -0.20926,0.249486 0.03115,0 0.17623,-0.112269 0.322454,-0.249486 z m 1.177245,-1.122687 c 0.120555,-0.247379 -0.1088,-0.117075 -0.439134,0.249489 l -0.337242,0.374226 0.357799,-0.249486 c 0.196786,-0.137217 0.385142,-0.30562 0.418577,-0.374229 z m -9.286098,0.125316 c -0.03568,-0.08201 -0.110508,-0.124272 -0.166239,-0.0939 -0.159823,0.08708 -0.118176,0.243023 0.06488,0.243023 0.100978,0 0.140756,-0.05854 0.101334,-0.149119 z m 14.203548,-0.01029 c 0.05792,0.03155 0.131775,-0.03194 0.164151,-0.141101 0.09248,-0.311787 -0.158683,-0.23383 -0.48591,0.150815 -0.15645,0.183906 -0.154613,0.189112 0.02338,0.06626 0.106228,-0.07334 0.240512,-0.10752 0.298419,-0.07597 z m -7.453032,-0.08695 c 0,-0.08902 -0.06642,-0.124096 -0.169143,-0.08934 -0.09303,0.03147 -0.140966,0.09742 -0.106519,0.146559 0.09878,0.140903 0.275662,0.104184 0.275662,-0.05722 z m 114.037141,5.072235 c -2.11304,-2.120928 -3.97792,-3.995816 -4.14417,-4.166417 l -0.30227,-0.310183 0.0625,0.424126 c 0.0516,0.350445 0.0299,0.424126 -0.12501,0.424126 -0.10313,0 -0.22999,-0.101042 -0.28192,-0.224537 -0.14872,-0.353662 -0.38691,-1.574915 -0.31887,-1.6349 0.0338,-0.02979 0.49843,0.07129 1.03253,0.224644 0.77343,0.22206 0.97109,0.317907 0.97109,0.470887 0,0.164613 -0.058,0.183784 -0.40537,0.134082 -0.36919,-0.05282 -0.39193,-0.04285 -0.25476,0.111685 0.29976,0.337707 5.00395,5.067182 5.33034,5.35899 l 0.33485,0.299384 -0.2787,-0.399178 c -0.46718,-0.669074 -3.61684,-5.087575 -3.64818,-5.117829 -0.0161,-0.01557 -0.0234,0.141604 -0.0161,0.349281 0.0111,0.314958 -0.0243,0.377594 -0.21313,0.377594 -0.20773,0 -0.22907,-0.07609 -0.25893,-0.923098 -0.0248,-0.701669 0.002,-0.922782 0.11319,-0.921779 0.27835,0.0025 1.78707,0.804647 1.78707,0.950115 0,0.191534 -0.44526,0.189742 -0.75747,-0.0031 -0.19607,-0.121071 4.7357,6.955456 5.07334,7.279664 0.0563,0.05409 0.0968,-1.445792 0.0942,-3.492805 -0.004,-3.237819 -0.021,-3.560852 -0.17342,-3.313174 -0.1758,0.28569 -0.61442,0.382222 -0.61442,0.135222 0,-0.264207 0.84564,-1.455634 1.03382,-1.456574 0.21112,-0.0011 1.00369,1.107115 1.00369,1.40335 0,0.292322 -0.39068,0.236716 -0.5761,-0.082 -0.14403,-0.247547 -0.1627,-0.100887 -0.19058,1.496916 -0.017,0.974243 -0.017,2.550639 0,3.503101 l 0.0309,1.731751 2.06989,-3.583387 c 1.38795,-2.402808 1.99641,-3.548715 1.84686,-3.478152 -0.32005,0.151006 -0.6907,0.129743 -0.6907,-0.03962 0,-0.133458 1.47198,-1.052676 1.68569,-1.052676 0.1043,0 0.23612,0.816507 0.23764,1.471967 8.1e-4,0.357885 -0.0344,0.424126 -0.2254,0.424126 -0.18991,0 -0.22739,-0.06834 -0.23256,-0.424126 -0.006,-0.38433 -0.22866,-0.03319 -2.37737,3.74229 -1.81008,3.180481 -2.4196,4.166417 -2.57575,4.166417 -0.12746,0 -1.65237,-1.453223 -4.04645,-3.856232 z m 4.22354,3.359713 c 0.13049,-0.184211 0.12136,-0.189798 -0.13902,-0.0852 -0.15326,0.06157 -0.25178,0.150275 -0.21893,0.197137 0.095,0.135494 0.20762,0.100269 0.35795,-0.111935 z m -0.79063,-0.501424 c -0.0778,-0.109774 -0.18796,-0.199589 -0.24489,-0.199589 -0.057,0 -0.0113,0.08982 0.10136,0.199589 0.11269,0.109773 0.22289,0.199589 0.2449,0.199589 0.022,0 -0.0236,-0.08982 -0.10137,-0.199589 z m -0.46327,-0.265252 c -0.0409,-0.03611 -0.0112,-0.137157 0.066,-0.224537 0.12413,-0.140344 0.11756,-0.143006 -0.0563,-0.02283 -0.17708,0.122393 -0.17952,0.313025 -0.004,0.313025 0.0379,0 0.0353,-0.02955 -0.006,-0.06566 z m -0.30283,-0.364741 c 0,-0.01718 -0.16555,-0.163123 -0.36788,-0.324331 l -0.36788,-0.293105 0.33246,0.324331 c 0.3099,0.302324 0.4033,0.370202 0.4033,0.293105 z m -0.79236,-0.798355 c 0,-0.01718 -0.16555,-0.163123 -0.36789,-0.324331 l -0.36788,-0.293106 0.33247,0.324332 c 0.3099,0.302323 0.4033,0.370202 0.4033,0.293105 z m -0.90556,-0.89815 c 0,-0.01718 -0.16555,-0.163123 -0.36788,-0.324331 l -0.36789,-0.293105 0.33246,0.324332 c 0.30991,0.302323 0.40331,0.370201 0.40331,0.293104 z m -0.79236,-0.798355 c 0,-0.01718 -0.16556,-0.163123 -0.36789,-0.324331 l -0.36788,-0.293106 0.33246,0.324333 c 0.30991,0.302322 0.40331,0.370201 0.40331,0.293104 z m -0.79237,-0.798355 c 0,-0.01718 -0.16555,-0.163124 -0.36788,-0.324332 l -0.36789,-0.293105 0.33247,0.324332 c 0.30991,0.302323 0.4033,0.370203 0.4033,0.293105 z m -0.90556,-0.899425 c 0,-0.01787 -0.14008,-0.141371 -0.31128,-0.274435 l -0.31129,-0.241932 0.27441,0.274435 c 0.25649,0.2565 0.34816,0.320199 0.34816,0.241932 z m -0.79236,-0.798355 c 0,-0.01787 -0.14009,-0.141371 -0.31129,-0.274435 l -0.31128,-0.241933 0.27441,0.274435 c 0.25649,0.256501 0.34816,0.320199 0.34816,0.241933 z m -0.79237,-0.79708 c 0,-0.01718 -0.16555,-0.163124 -0.36788,-0.324332 l -0.36789,-0.293105 0.33247,0.324332 c 0.30991,0.302323 0.4033,0.370202 0.4033,0.293105 z m -1.20894,-1.207382 c -0.23781,-0.242139 -0.4482,-0.402405 -0.46752,-0.356146 -0.0292,0.06991 0.7491,0.785151 0.8637,0.793699 0.0199,0.0015 -0.15838,-0.195413 -0.39618,-0.437553 z m 8.6002,-0.09833 c -0.18449,-0.216987 -0.37317,-0.256403 -0.37317,-0.07796 0,0.05536 0.26153,0.202218 0.54296,0.304905 0.0184,0.0067 -0.0579,-0.09539 -0.16979,-0.226951 z m 4.8338,-0.110076 c 0,-0.08233 -0.051,-0.149692 -0.11321,-0.149692 -0.0623,0 -0.11319,0.06736 -0.11319,0.149692 0,0.08233 0.051,0.149692 0.11319,0.149692 0.0623,0 0.11321,-0.06736 0.11321,-0.149692 z m -11.09311,-0.03922 c 0,-0.04901 -0.0764,-0.114967 -0.16979,-0.14656 -0.10343,-0.03499 -0.16979,-2e-4 -0.16979,0.08912 0,0.0806 0.0765,0.146561 0.16979,0.146561 0.0934,0 0.16979,-0.0401 0.16979,-0.08912 z M 95.174436,60.46595 c -0.04166,-0.03677 -0.0758,-1.249413 -0.0758,-2.69477 V 55.143261 H 81.571808 68.045018 V 54.79398 54.4447 h 13.524743 13.524747 l 0.03034,-2.370117 0.03034,-2.370118 h 17.149032 17.14902 l 0.0303,2.370118 0.0303,2.370117 h 13.46814 13.46815 v 0.34928 0.349281 h -13.46832 -13.46835 l -0.0302,2.6695 -0.0302,2.6695 -17.1015,0.02527 c -9.40582,0.0139 -17.135618,-0.0048 -17.177321,-0.04158 z m 34.082574,-2.852777 0.0306,-2.968883 13.43488,-0.05615 c 11.89629,-0.04972 13.50142,0.338064 13.50142,0.205842 0,-0.13222 -1.57193,-0.149691 -13.46815,-0.149691 H 129.2876 l -0.0303,-2.370117 -0.0303,-2.370118 H 112.30423 95.381593 l 0.118488,2.370118 -0.175069,2.6695 -13.545384,0.08096 c -11.946318,0.0714 -11.608995,-0.113806 -11.50285,-0.192646 0.09354,-0.06948 -0.426911,0.11169 11.521441,0.11169 h 13.526793 v 2.627919 c 0,1.445356 0.03414,2.658004 0.0758,2.694774 0.04174,0.03677 7.669628,0.05548 16.950928,0.04158 l 16.87511,-0.02527 z m -33.931998,-2.6695 0.05658,-5.039618 10.763338,-0.07792 10.64831,0.0049 -0.0744,5.262284 0.39687,5.237479 -10.924,0.07441 -11.017265,0.06069 z m 21.167428,0.14969 V 50.353129 H 106.1917 95.890971 v 4.740234 4.740234 h 10.300729 10.30074 z m 0.22639,0 -0.12813,-5.243842 6.45721,-0.04677 6.28871,-0.02128 0.0791,2.62213 -0.18891,7.879076 -6.22571,0.09778 -6.13289,-0.02481 z m 11.99866,0 v -4.740234 h -5.71635 -5.71634 v 4.740234 4.740234 h 5.71634 5.71635 z m -85.89521,0.417694 c -0.337275,-0.316508 -0.329735,-0.862521 0.01586,-1.148757 0.571857,-0.473627 1.435943,-0.115367 1.435943,0.595357 0,0.694232 -0.925715,1.047098 -1.451807,0.5534 z m 0.96343,-0.185603 c 0.326604,-0.270501 0.330488,-0.454322 0.01586,-0.74958 -0.304688,-0.285932 -0.406362,-0.287862 -0.737035,-0.01399 -0.326604,0.270502 -0.330495,0.454322 -0.01586,0.74958 0.304689,0.285933 0.406362,0.287862 0.737035,0.01398 z m 6.53916,0.171622 c -0.561469,-0.494998 -0.163617,-1.35176 0.627717,-1.35176 0.465354,0 0.905556,0.388091 0.905556,0.798356 0,0.410264 -0.440202,0.798355 -0.905556,0.798355 -0.220546,0 -0.452579,-0.09054 -0.627717,-0.244951 z m 1.029039,-0.199589 c 0.152818,-0.134722 0.277847,-0.293939 0.277847,-0.353815 0,-0.141314 -0.518884,-0.598767 -0.679169,-0.598767 -0.160292,0 -0.679168,0.457453 -0.679168,0.598767 0,0.141313 0.518876,0.598766 0.679168,0.598766 0.06795,0 0.248513,-0.110228 0.401322,-0.244951 z m 1.574442,0.199589 c -0.561469,-0.494998 -0.163617,-1.35176 0.627717,-1.35176 0.465353,0 0.905555,0.388091 0.905555,0.798356 0,0.410264 -0.440202,0.798355 -0.905555,0.798355 -0.220546,0 -0.452579,-0.09054 -0.627717,-0.244951 z m 1.029047,-0.199589 c 0.15281,-0.134722 0.277839,-0.293939 0.277839,-0.353815 0,-0.141314 -0.518876,-0.598767 -0.679169,-0.598767 -0.160293,0 -0.679168,0.457453 -0.679168,0.598767 0,0.141313 0.518875,0.598766 0.679168,0.598766 0.06795,0 0.248513,-0.110228 0.40133,-0.244951 z m 4.146194,0.21357 c -0.337266,-0.316508 -0.329727,-0.862521 0.01586,-1.148757 0.571857,-0.473627 1.435943,-0.115367 1.435943,0.595357 0,0.694232 -0.925715,1.047098 -1.451807,0.5534 z m 0.96343,-0.185603 c 0.326604,-0.270501 0.330496,-0.454322 0.01586,-0.74958 -0.304688,-0.285932 -0.406362,-0.287862 -0.737035,-0.01399 -0.326604,0.270502 -0.330487,0.454322 -0.01586,0.74958 0.304689,0.285933 0.406362,0.287862 0.737035,0.01398 z m 99.019398,0.171622 c -0.56146,-0.494998 -0.16361,-1.35176 0.62772,-1.35176 0.46536,0 0.90556,0.388091 0.90556,0.798356 0,0.410264 -0.4402,0.798355 -0.90556,0.798355 -0.22055,0 -0.45257,-0.09054 -0.62772,-0.244951 z m 1.02906,-0.199589 c 0.15281,-0.134722 0.27783,-0.293939 0.27783,-0.353815 0,-0.141314 -0.51888,-0.598767 -0.67917,-0.598767 -0.16028,0 -0.67917,0.457453 -0.67917,0.598767 0,0.141313 0.51889,0.598766 0.67917,0.598766 0.068,0 0.24852,-0.110228 0.40134,-0.244951 z m 1.57442,0.199589 c -0.56146,-0.494998 -0.16361,-1.35176 0.62773,-1.35176 0.46535,0 0.90555,0.388091 0.90555,0.798356 0,0.410264 -0.4402,0.798355 -0.90555,0.798355 -0.22055,0 -0.45258,-0.09054 -0.62773,-0.244951 z m 1.02906,-0.199589 c 0.15281,-0.134722 0.27784,-0.293939 0.27784,-0.353815 0,-0.141314 -0.51889,-0.598767 -0.67917,-0.598767 -0.16029,0 -0.67917,0.457453 -0.67917,0.598767 0,0.141313 0.51888,0.598766 0.67917,0.598766 0.0679,0 0.24852,-0.110228 0.40133,-0.244951 z m 6.52329,0.21357 c -0.33728,-0.316508 -0.32974,-0.862521 0.0159,-1.148757 0.57185,-0.473627 1.43594,-0.115367 1.43594,0.595357 0,0.694232 -0.92572,1.047098 -1.45181,0.5534 z m 0.96342,-0.185603 c 0.3266,-0.270501 0.33049,-0.454322 0.0159,-0.74958 -0.30469,-0.285932 -0.40637,-0.287862 -0.73704,-0.01399 -0.3266,0.270502 -0.3305,0.454322 -0.0159,0.74958 0.30469,0.285933 0.40637,0.287862 0.73704,0.01398 z m 4.16207,0.171622 c -0.56147,-0.494998 -0.16361,-1.35176 0.62772,-1.35176 0.46535,0 0.90556,0.388091 0.90556,0.798356 0,0.410264 -0.44021,0.798355 -0.90556,0.798355 -0.22055,0 -0.45258,-0.09054 -0.62772,-0.244951 z m 1.02905,-0.199589 c 0.15281,-0.134722 0.27784,-0.293939 0.27784,-0.353815 0,-0.141314 -0.51888,-0.598767 -0.67917,-0.598767 -0.16028,0 -0.67918,0.457453 -0.67918,0.598767 0,0.141313 0.5189,0.598766 0.67918,0.598766 0.0679,0 0.24851,-0.110228 0.40133,-0.244951 z M 92.948444,53.764279 c -0.543849,-0.124146 -0.745724,-0.217064 -0.775535,-0.356968 -0.03584,-0.168206 0.01262,-0.182881 0.437646,-0.132618 0.26288,0.03108 0.433584,0.01958 0.37935,-0.02556 -9.501575,-7.909908 -11.87731,-9.923392 -11.90823,-10.092489 -0.02896,-0.158251 0.01537,-0.196851 0.196576,-0.171336 0.128669,0.01812 2.867542,2.233403 6.08639,4.922862 3.218836,2.689459 5.891089,4.904114 5.938334,4.921455 0.04724,0.01734 0.05639,-0.128608 0.02039,-0.324332 -0.05663,-0.30741 -0.03503,-0.355861 0.158246,-0.355861 0.180833,0 0.270533,0.141938 0.467594,0.739844 0.134106,0.406914 0.243837,0.811082 0.243837,0.89815 0,0.200132 -0.290127,0.194736 -1.24461,-0.02314 z m 0.950317,-0.142884 c -0.03341,-0.06861 -0.222852,-0.234482 -0.420924,-0.368609 l -0.360145,-0.243866 0.282992,0.292898 c 0.254305,0.263215 0.465839,0.438575 0.534125,0.442793 0.01359,7.99e-4 -0.0024,-0.0546 -0.03608,-0.123216 z m -1.290439,-1.00062 c 0,-0.01519 -0.369302,-0.340773 -0.820668,-0.723509 l -0.820661,-0.695885 0.789329,0.72351 c 0.733128,0.671996 0.852,0.769085 0.852,0.695884 z m -2.150707,-1.796299 c 0,-0.01519 -0.369302,-0.340773 -0.82066,-0.72351 l -0.820669,-0.695884 0.789329,0.72351 c 0.733127,0.671995 0.852,0.769084 0.852,0.695884 z M 88.306908,49.02797 c 0,-0.01531 -0.343827,-0.318433 -0.764064,-0.673612 l -0.764063,-0.64578 0.732497,0.673611 c 0.680374,0.625681 0.79563,0.719231 0.79563,0.645781 z m -2.037506,-1.696298 c 0,-0.01519 -0.369294,-0.340773 -0.82066,-0.723509 l -0.820672,-0.695885 0.789332,0.723509 c 0.733128,0.671996 0.852,0.769085 0.852,0.695885 z m -2.15071,-1.7963 c 0,-0.01519 -0.369294,-0.340772 -0.82066,-0.723509 l -0.820661,-0.695884 0.789329,0.723509 c 0.733128,0.671996 0.851992,0.769085 0.851992,0.695884 z m -2.037506,-1.6992 c 0,-0.01667 -0.191017,-0.18508 -0.424483,-0.374229 l -0.424475,-0.343908 0.390085,0.374229 c 0.363089,0.348324 0.458873,0.420113 0.458873,0.343908 z m 48.220944,9.435943 c -4e-5,-0.04116 0.0833,-0.445332 0.18529,-0.898149 0.15692,-0.696983 0.21955,-0.823304 0.40815,-0.823304 0.19281,0 0.2168,0.05544 0.17823,0.411963 l -0.0446,0.411963 0.28736,-0.29807 c 0.15805,-0.163939 2.29417,-2.280344 4.74694,-4.703123 4.25453,-4.202511 4.97778,-4.830649 4.85858,-4.219644 -0.0199,0.101975 -2.09915,2.22071 -4.62057,4.7083 -2.52142,2.48759 -4.62341,4.579462 -4.6711,4.648604 -0.0658,0.09542 0.009,0.111992 0.31129,0.06878 0.34026,-0.04868 0.39799,-0.02894 0.39799,0.136064 0,0.150518 -0.16997,0.241264 -0.7721,0.412236 -0.78817,0.223795 -1.26534,0.278237 -1.26549,0.144385 z m 0.84993,-0.618915 0.3387,-0.344482 -0.4163,0.294584 c -0.22897,0.162022 -0.41999,0.3597 -0.42449,0.439286 -0.005,0.08192 0.029,0.103566 0.0776,0.0499 0.0472,-0.05214 0.23819,-0.249822 0.42447,-0.439286 z m 0.96127,-0.952847 c 0.21121,-0.192104 0.35853,-0.34928 0.3274,-0.34928 -0.0311,0 -0.22939,0.157176 -0.44059,0.34928 -0.21119,0.192105 -0.35853,0.349281 -0.3274,0.349281 0.0312,0 0.2294,-0.157176 0.44059,-0.349281 z m 0.96928,-0.972995 0.33247,-0.324332 -0.36788,0.293105 c -0.20234,0.161208 -0.36789,0.307157 -0.36789,0.324332 0,0.0771 0.0934,0.0092 0.4033,-0.293105 z m 0.90557,-0.89815 0.33246,-0.324332 -0.36789,0.293106 c -0.34291,0.273215 -0.41991,0.355558 -0.33246,0.355558 0.0195,0 0.18503,-0.145949 0.36789,-0.324332 z m 0.90555,-0.898149 0.33247,-0.324332 -0.36789,0.293105 c -0.34292,0.273215 -0.41991,0.355558 -0.33246,0.355558 0.0195,0 0.18503,-0.145949 0.36788,-0.324331 z m 0.95504,-0.923098 c 0.2112,-0.192105 0.35852,-0.349281 0.3274,-0.349281 -0.0311,0 -0.2294,0.157176 -0.4406,0.349281 -0.21119,0.192103 -0.35852,0.34928 -0.3274,0.34928 0.0311,0 0.2294,-0.157177 0.4406,-0.34928 z m 0.96927,-0.972996 0.33247,-0.324332 -0.36788,0.293106 c -0.34292,0.273214 -0.41992,0.355558 -0.33246,0.355558 0.0195,0 0.18502,-0.14595 0.36787,-0.324332 z m 0.90557,-0.89815 0.33246,-0.324331 -0.36788,0.293105 c -0.20234,0.161208 -0.36789,0.307157 -0.36789,0.324331 0,0.0771 0.0934,0.0092 0.40331,-0.293105 z m 0.90555,-0.89815 0.33247,-0.324331 -0.36788,0.293105 c -0.34293,0.273215 -0.41992,0.355559 -0.33247,0.355559 0.0195,0 0.18503,-0.14595 0.36788,-0.324333 z m 0.95504,-0.923098 c 0.2112,-0.192104 0.35853,-0.34928 0.3274,-0.34928 -0.0311,0 -0.2294,0.157176 -0.44059,0.34928 -0.2112,0.192105 -0.35853,0.349281 -0.3274,0.349281 0.0311,0 0.22939,-0.157176 0.44059,-0.349281 z m 0.90556,-0.898149 c 0.14622,-0.137218 0.24038,-0.249486 0.20926,-0.249486 -0.0311,0 -0.17624,0.112268 -0.32245,0.249486 -0.14622,0.137217 -0.24039,0.249486 -0.20926,0.249486 0.0311,0 0.17623,-0.112269 0.32245,-0.249486 z M 42.769469,52.51484 c -0.230836,-0.347892 -0.419702,-0.707152 -0.419702,-0.798355 0,-0.26289 0.381154,-0.193122 0.593343,0.108612 0.183406,0.260785 0.193154,0.01509 0.19601,-4.939824 0.0032,-5.146842 0.0057,-5.214257 0.229404,-5.214257 0.223466,0 0.226427,0.06741 0.229404,5.214257 0.0024,4.954921 0.01262,5.200609 0.19601,4.939824 0.209155,-0.297409 0.593343,-0.372524 0.593343,-0.11601 0,0.290653 -0.801892,1.438285 -1.00498,1.438285 -0.117586,0 -0.357297,-0.247422 -0.612832,-0.632532 z m 0.712248,0.233355 c 0,-0.05489 -0.05396,-0.0998 -0.119875,-0.0998 -0.06593,0 -0.08839,0.0449 -0.04991,0.0998 0.03851,0.05489 0.09243,0.09979 0.119876,0.09979 0.02743,0 0.04991,-0.0449 0.04991,-0.09979 z M 173.39641,52.51484 c -0.23084,-0.347892 -0.41971,-0.707152 -0.41971,-0.798355 0,-0.26289 0.38115,-0.193122 0.59335,0.108612 0.18339,0.260785 0.19314,0.01509 0.19601,-4.939824 0.003,-5.146842 0.006,-5.214257 0.2294,-5.214257 0.22346,0 0.22642,0.06741 0.2294,5.214257 0.003,4.954921 0.0126,5.200609 0.19601,4.939824 0.20916,-0.297409 0.59334,-0.372524 0.59334,-0.11601 0,0.290653 -0.80188,1.438285 -1.00498,1.438285 -0.11759,0 -0.3573,-0.247422 -0.61282,-0.632532 z m 0.71224,0.233355 c 0,-0.05489 -0.054,-0.0998 -0.11987,-0.0998 -0.0659,0 -0.0884,0.0449 -0.0499,0.0998 0.0385,0.05489 0.0924,0.09979 0.11987,0.09979 0.0275,0 0.0499,-0.0449 0.0499,-0.09979 z m -57.65437,-4.266211 c -0.40634,-0.568702 -0.64101,-0.996167 -0.64101,-1.167628 0,-0.257574 0.40563,-0.173234 0.5761,0.119787 0.13914,0.239148 0.16341,-0.614137 0.18874,-6.636328 0.0287,-6.819754 0.032,-6.910763 0.25391,-6.910763 0.22188,0 0.22522,0.09101 0.25392,6.910763 0.0253,6.022191 0.0496,6.875476 0.18874,6.636328 0.18299,-0.314539 0.5761,-0.37474 0.5761,-0.08823 0,0.25809 -0.8173,1.503689 -0.98904,1.507328 -0.077,0.0016 -0.2604,-0.165435 -0.40746,-0.371261 z m 0.49094,-0.124743 c 0,-0.05489 -0.051,-0.09979 -0.1132,-0.09979 -0.0623,0 -0.11319,0.0449 -0.11319,0.09979 0,0.05489 0.051,0.0998 0.11319,0.0998 0.0623,0 0.1132,-0.0449 0.1132,-0.0998 z"
         id="path849"
         sodipodi:nodetypes="csscsscscscscsccsssscscssssscsccccscscssssccssssscccscccssccsssssssssscssssssccscscssssscssssscsscssscssssscsssccscccscsssccsssssscsssscsssscssssssssscsssscsssscsssssssssscssccscccsssccsssscsccsssssssscsssscsssscsscsssscsssssscssccssssssssssccssccsscsssscsssscsssscsssscsssscsssscsssscssssssssssssssssssssscscccccccccccccccccccccsccccssscccccccssscscsccccccccccccccccccccccccccccccccccccccssssssssssscssscsssssscssscsssssssssssssssssssssssssssssssssssssssscsssssssssssssssssssssssccssscssssscscscccsscsssscsssscsssscsssscsssscssccsccssssscssccccscsscsssssscsssscsssscssssssssscsssscsssscsssssssssssssssscscsssssscssssssscsssssssssssssscsscsssssss"
         sodipodi:insensitive="true" />
    </g>
    <text
       xml:space="preserve"
       style="font-style:normal;font-weight:normal;font-size:3.52778px;line-height:1.25;font-family:sans-serif;white-space:pre;inline-size:34.5761;fill:#000000;fill-opacity:1;stroke:none;stroke-width:0.264583"
       x="201.90871"
       y="88.257439"
       id="text853-3-0"
       transform="translate(-93.012406,-56.119819)"><tspan
         x="201.90871"
         y="88.257439"><tspan
           style="font-style:normal;font-variant:normal;font-weight:normal;font-stretch:normal;font-family:'Segoe Print';-inkscape-font-specification:'Segoe Print'">Médiane Q</tspan><tspan
           style="font-size:65%;baseline-shift:sub">2</tspan></tspan></text>
    <text
       xml:space="preserve"
       style="font-style:normal;font-weight:normal;font-size:3.52778px;line-height:1.25;font-family:sans-serif;white-space:pre;inline-size:42.2467;fill:#000000;fill-opacity:1;stroke:none;stroke-width:0.264583"
       x="252.07104"
       y="88.257439"
       id="text853-3-0-2"
       transform="translate(-135.81849,-15.45062)"><tspan
         x="252.07104"
         y="88.257439"><tspan
           style="font-style:normal;font-variant:normal;font-weight:normal;font-stretch:normal;font-family:'Segoe Print';-inkscape-font-specification:'Segoe Print';text-align:center;text-anchor:middle">Ecart interquartile </tspan><tspan
           style="font-style:normal;font-variant:normal;font-weight:normal;font-stretch:normal;font-family:'Segoe Print';-inkscape-font-specification:'Segoe Print';text-align:center;text-anchor:middle">(EI)</tspan></tspan></text>
    <text
       xml:space="preserve"
       style="font-style:normal;font-weight:normal;font-size:3.52778px;line-height:1.25;font-family:sans-serif;text-align:center;text-anchor:middle;white-space:pre;inline-size:34.5761;fill:#000000;fill-opacity:1;stroke:none;stroke-width:0.264583"
       x="217.41508"
       y="88.257439"
       id="text853-3-0-2-0"
       transform="translate(-67.48697,-47.575074)"><tspan
         x="217.41508"
         y="88.257439"><tspan
           style="font-style:normal;font-variant:normal;font-weight:normal;font-stretch:normal;font-family:'Segoe Print';-inkscape-font-specification:'Segoe Print';text-align:center;text-anchor:middle">Troisème quartile</tspan><tspan></tspan><tspan
           y="88.257439"> </tspan></tspan><tspan
         x="217.41508"
         y="92.762082"><tspan
           style="font-style:normal;font-variant:normal;font-weight:normal;font-stretch:normal;font-family:'Segoe Print';-inkscape-font-specification:'Segoe Print';text-align:center;text-anchor:middle">Q</tspan><tspan
           style="font-size:65%;text-align:center;baseline-shift:sub;text-anchor:middle">3</tspan></tspan></text>
    <text
       xml:space="preserve"
       style="font-style:normal;font-weight:normal;font-size:3.52778px;line-height:1.25;font-family:sans-serif;white-space:pre;inline-size:34.5761;fill:#000000;fill-opacity:1;stroke:none;stroke-width:0.264583"
       x="217.2437"
       y="88.257439"
       id="text853-3-0-2-1"
       transform="translate(-137.07681,-50.098016)"><tspan
         x="217.2437"
         y="88.257439"><tspan
           style="font-style:normal;font-variant:normal;font-weight:normal;font-stretch:normal;font-family:'Segoe Print';-inkscape-font-specification:'Segoe Print';text-align:center;text-anchor:middle">Premier quartile  </tspan></tspan><tspan
         x="217.2437"
         y="92.762082"><tspan
           style="font-style:normal;font-variant:normal;font-weight:normal;font-stretch:normal;font-family:'Segoe Print';-inkscape-font-specification:'Segoe Print';text-align:center;text-anchor:middle">Q</tspan><tspan
           style="font-size:65%;text-align:center;baseline-shift:sub;text-anchor:middle">1</tspan></tspan></text>
    <text
       xml:space="preserve"
       style="font-style:normal;font-weight:normal;font-size:3.52778px;line-height:1.25;font-family:sans-serif;white-space:pre;inline-size:34.5761;fill:#000000;fill-opacity:1;stroke:none;stroke-width:0.264583"
       x="201.90871"
       y="88.257439"
       id="text853-3-0-6"
       transform="translate(-29.572216,-48.118286)"><tspan
         x="201.90871"
         y="88.257439"><tspan
           style="font-style:normal;font-variant:normal;font-weight:normal;font-stretch:normal;font-family:'Segoe Print';-inkscape-font-specification:'Segoe Print'">Maximum</tspan></tspan></text>
    <text
       xml:space="preserve"
       style="font-style:normal;font-weight:normal;font-size:3.52778px;line-height:1.25;font-family:sans-serif;white-space:pre;inline-size:34.5761;fill:#000000;fill-opacity:1;stroke:none;stroke-width:0.264583"
       x="201.90871"
       y="88.257439"
       id="text853-3-0-6-6"
       transform="translate(-164.26346,-47.517634)"><tspan
         x="201.90871"
         y="88.257439"><tspan
           style="font-style:normal;font-variant:normal;font-weight:normal;font-stretch:normal;font-family:'Segoe Print';-inkscape-font-specification:'Segoe Print'">Minimum</tspan></tspan></text>
    <text
       xml:space="preserve"
       style="font-style:normal;font-weight:normal;font-size:3.52778px;line-height:1.25;font-family:sans-serif;white-space:pre;inline-size:50.9464;fill:#000000;fill-opacity:1;stroke:none;stroke-width:0.264583"
       x="201.90871"
       y="88.257439"
       id="text853-3-0-6-6-9"
       transform="translate(-155.0669,-4.8269517)"><tspan
         x="201.90871"
         y="88.257439"><tspan
           style="font-style:normal;font-variant:normal;font-weight:normal;font-stretch:normal;font-family:'Segoe Print';-inkscape-font-specification:'Segoe Print'">max(Minimum, Q1 - 1.5EI)</tspan></tspan></text>
    <text
       xml:space="preserve"
       style="font-style:normal;font-weight:normal;font-size:3.52778px;line-height:1.25;font-family:sans-serif;white-space:pre;inline-size:50.9464;fill:#000000;fill-opacity:1;stroke:none;stroke-width:0.264583"
       x="201.90871"
       y="88.257439"
       id="text853-3-0-6-6-9-2"
       transform="translate(-68.757487,0.28449487)"><tspan
         x="201.90871"
         y="88.257439"><tspan
           style="font-style:normal;font-variant:normal;font-weight:normal;font-stretch:normal;font-family:'Segoe Print';-inkscape-font-specification:'Segoe Print'">min(Maximum, Q3 + 1.5EI)</tspan></tspan></text>
    <text
       xml:space="preserve"
       style="font-style:normal;font-weight:normal;font-size:3.52778px;line-height:1.25;font-family:sans-serif;text-align:start;text-anchor:start;white-space:pre;inline-size:34.5761;fill:#000000;fill-opacity:1;stroke:none;stroke-width:0.264583"
       x="235.22453"
       y="88.257439"
       id="text853-3-3"
       transform="translate(-67.639068,-18.112752)"><tspan
         x="235.22453"
         y="88.257439"><tspan
           style="font-style:normal;font-variant:normal;font-weight:normal;font-stretch:normal;font-size:3.52778px;font-family:'Segoe Script';-inkscape-font-specification:'Segoe Script';text-align:start;text-anchor:start;stroke-width:0.264583">Potentielles </tspan></tspan></text>
    <text
       xml:space="preserve"
       style="font-style:normal;font-weight:normal;font-size:3.52778px;line-height:1.25;font-family:sans-serif;white-space:pre;inline-size:34.5761;fill:#000000;fill-opacity:1;stroke:none;stroke-width:0.264583"
       x="201.90871"
       y="88.257439"
       id="text853-3-0-6-66"
       transform="translate(-38.364943,-13.581781)"><tspan
         x="201.90871"
         y="88.257439"><tspan
           style="font-style:normal;font-variant:normal;font-weight:normal;font-stretch:normal;font-family:'Segoe Print';-inkscape-font-specification:'Segoe Print'">valeurs aberrantes</tspan></tspan></text>
    <text
       xml:space="preserve"
       style="font-style:normal;font-weight:normal;font-size:3.52778px;line-height:1.25;font-family:sans-serif;text-align:start;text-anchor:start;white-space:pre;inline-size:34.5761;fill:#000000;fill-opacity:1;stroke:none;stroke-width:0.264583"
       x="235.22453"
       y="88.257439"
       id="text853-3-3-8"
       transform="translate(-198.45299,-17.38015)"><tspan
         x="235.22453"
         y="88.257439"><tspan
           style="font-style:normal;font-variant:normal;font-weight:normal;font-stretch:normal;font-size:3.52778px;font-family:'Segoe Script';-inkscape-font-specification:'Segoe Script';text-align:start;text-anchor:start;stroke-width:0.264583">Potentielles </tspan></tspan></text>
    <text
       xml:space="preserve"
       style="font-style:normal;font-weight:normal;font-size:3.52778px;line-height:1.25;font-family:sans-serif;white-space:pre;inline-size:34.5761;fill:#000000;fill-opacity:1;stroke:none;stroke-width:0.264583"
       x="201.90871"
       y="88.257439"
       id="text853-3-0-6-66-4"
       transform="translate(-169.17887,-12.849179)"><tspan
         x="201.90871"
         y="88.257439"><tspan
           style="font-style:normal;font-variant:normal;font-weight:normal;font-stretch:normal;font-family:'Segoe Print';-inkscape-font-specification:'Segoe Print'">valeurs aberrantes</tspan></tspan></text>
  </g>
</svg>
